M48
METRIC,LZ,000.000
;FILE_FORMAT=3:3
;TYPE=PLATED
;Layer: PTH_Through
;EasyEDA v6.5.5, 2022-06-07 18:50:17
;7653fe5fde93489792365d8cfc8fd1ed,10
;Gerber Generator version 0.2
;Holesize 1 = 0.305 mm
T01C0.305
;Holesize 2 = 0.915 mm
T02C0.915
;Holesize 3 = 1.000 mm
T03C1.000
;Holesize 4 = 1.101 mm
T04C1.101
%
G05
G90
T01
X051180Y015367
T02
X044600Y009159
X049600Y009159
X054600Y009159
X059600Y009159
X064600Y009159
X069600Y009159
X046100Y047659
X048640Y047659
X051180Y047659
X053720Y047659
X062600Y047659
X065140Y047659
X067680Y047659
T03
X033401Y035687G85X033401Y035687
X033401Y033147G85X033401Y033147
X033401Y030607G85X033401Y030607
X033401Y028067G85X033401Y028067
X033401Y025527G85X033401Y025527
X033401Y022987G85X033401Y022987
X033401Y020447G85X033401Y020447
X033401Y017907G85X033401Y017907
X033401Y015367G85X033401Y015367
X033401Y012827G85X033401Y012827
X033401Y010287G85X033401Y010287
X033401Y007747G85X033401Y007747
X013081Y035687G85X013081Y035687
X013081Y033147G85X013081Y033147
X013081Y030607G85X013081Y030607
X013081Y028067G85X013081Y028067
X013081Y025527G85X013081Y025527
X013081Y022987G85X013081Y022987
X013081Y020447G85X013081Y020447
X013081Y017907G85X013081Y017907
X013081Y015367G85X013081Y015367
X013081Y012827G85X013081Y012827
X013081Y010287G85X013081Y010287
X013081Y007747G85X013081Y007747
X013081Y038227G85X013081Y038227
X013081Y040767G85X013081Y040767
X013081Y043307G85X013081Y043307
X013081Y045847G85X013081Y045847
T04
X057658Y055880
X055118Y055880
X052578Y055880
X050038Y055880
X047498Y055880
X044958Y055880
X042418Y055880
X039878Y055880
X037338Y055880
X034798Y055880
M30
