G04 Layer: TopSilkscreenLayer*
G04 EasyEDA v6.5.5, 2022-06-07 18:50:17*
G04 7653fe5fde93489792365d8cfc8fd1ed,10*
G04 Gerber Generator version 0.2*
G04 Scale: 100 percent, Rotated: No, Reflected: No *
G04 Dimensions in millimeters *
G04 leading zeros omitted , absolute positions ,4 integer and 5 decimal *
%FSLAX45Y45*%
%MOMM*%

%ADD10C,0.2540*%
%ADD16C,0.1000*%
%ADD17C,0.1270*%
%ADD18C,0.2032*%
%ADD19C,0.1524*%
%ADD20C,0.1780*%

%LPD*%
G36*
X2325065Y4695291D02*
G01*
X2324862Y4695240D01*
X2324100Y4693615D01*
X2321458Y4684725D01*
X2317445Y4669028D01*
X2305913Y4620209D01*
X2291029Y4553407D01*
X2274417Y4475835D01*
X2259330Y4404004D01*
X2247696Y4347210D01*
X2240788Y4312107D01*
X2239518Y4304131D01*
X2240381Y4302048D01*
X2242921Y4299051D01*
X2246884Y4295292D01*
X2252065Y4290872D01*
X2265629Y4280763D01*
X2273604Y4275277D01*
X2324658Y4242968D01*
X2409240Y4297781D01*
X2409291Y4299051D01*
X2407920Y4307941D01*
X2400503Y4346752D01*
X2388463Y4406138D01*
X2371750Y4486249D01*
X2354275Y4567936D01*
X2340406Y4631436D01*
X2329992Y4676902D01*
X2326741Y4690059D01*
G37*
G36*
X1792478Y4481322D02*
G01*
X1811832Y4450080D01*
X1928215Y4269435D01*
X2135124Y3949446D01*
X2040128Y3803446D01*
X1931568Y3635654D01*
X1867103Y3535476D01*
X1820011Y3461867D01*
X1800555Y3430828D01*
X1797100Y3423869D01*
X1798066Y3422294D01*
X1803806Y3425037D01*
X1831492Y3442360D01*
X1980234Y3537965D01*
X2318512Y3756151D01*
X2319985Y3756406D01*
X2322372Y3755999D01*
X2325573Y3754983D01*
X2334463Y3750970D01*
X2346452Y3744518D01*
X2361336Y3735781D01*
X2378862Y3724859D01*
X2554274Y3611575D01*
X2787040Y3461664D01*
X2848610Y3422243D01*
X2852216Y3420262D01*
X2853690Y3420160D01*
X2853588Y3421583D01*
X2850540Y3427018D01*
X2756865Y3572916D01*
X2593594Y3825951D01*
X2513584Y3949192D01*
X2624378Y4121505D01*
X2831947Y4443374D01*
X2851810Y4474616D01*
X2852826Y4477461D01*
X2850845Y4477359D01*
X2845155Y4474464D01*
X2830576Y4465472D01*
X2768752Y4426102D01*
X2672943Y4364532D01*
X2526893Y4270146D01*
X2324404Y4138625D01*
X1860702Y4438294D01*
X1813102Y4468723D01*
G37*
G36*
X2681884Y4033977D02*
G01*
X2678988Y4033469D01*
X2675737Y4031843D01*
X2672130Y4028998D01*
X2668016Y4024833D01*
X2663342Y4019296D01*
X2658110Y4012285D01*
X2652115Y4003700D01*
X2639618Y3984396D01*
X2630373Y3968343D01*
X2626969Y3961536D01*
X2624378Y3955694D01*
X2622702Y3950919D01*
X2621940Y3947210D01*
X2622143Y3944721D01*
X2623667Y3941216D01*
X2629001Y3931462D01*
X2636520Y3919067D01*
X2645410Y3905453D01*
X2654655Y3891889D01*
X2663393Y3879748D01*
X2670708Y3870299D01*
X2675737Y3864965D01*
X2677109Y3864203D01*
X2682494Y3865067D01*
X2714904Y3871518D01*
X2836265Y3896868D01*
X2990748Y3929887D01*
X3040989Y3940911D01*
X3069640Y3947566D01*
X3069691Y3947769D01*
X3068167Y3948480D01*
X3059277Y3951122D01*
X3043275Y3955287D01*
X2994456Y3966972D01*
X2930347Y3981704D01*
X2841802Y4001465D01*
X2774746Y4015943D01*
X2720289Y4027220D01*
X2700528Y4031081D01*
X2687116Y4033367D01*
G37*
G36*
X1964689Y4033774D02*
G01*
X1958339Y4032859D01*
X1925370Y4026560D01*
X1870913Y4015435D01*
X1801672Y4000804D01*
X1716633Y3982364D01*
X1651558Y3967683D01*
X1604060Y3956304D01*
X1588770Y3952290D01*
X1580134Y3949700D01*
X1578559Y3948937D01*
X1578508Y3948734D01*
X1583740Y3947058D01*
X1616811Y3939184D01*
X1672437Y3926789D01*
X1741525Y3911854D01*
X1824126Y3894378D01*
X1891741Y3880408D01*
X1944522Y3869842D01*
X1962454Y3866489D01*
X1973275Y3864711D01*
X1976018Y3864559D01*
X2030831Y3949141D01*
X1996338Y4003700D01*
X1989937Y4013301D01*
X1984552Y4020718D01*
X1979930Y4026154D01*
X1975866Y4029964D01*
X1972106Y4032351D01*
X1968500Y4033520D01*
G37*
G36*
X2322576Y3653790D02*
G01*
X2320696Y3653180D01*
X2312873Y3649116D01*
X2300935Y3642106D01*
X2286254Y3632911D01*
X2268728Y3621227D01*
X2260600Y3615436D01*
X2253945Y3610254D01*
X2248611Y3605682D01*
X2244648Y3601618D01*
X2241905Y3598011D01*
X2240280Y3594811D01*
X2239822Y3591915D01*
X2240838Y3583990D01*
X2243582Y3568903D01*
X2248966Y3541572D01*
X2261260Y3483152D01*
X2276246Y3414268D01*
X2297836Y3318154D01*
X2311654Y3258769D01*
X2321763Y3217926D01*
X2324811Y3207105D01*
X2326030Y3204108D01*
X2326233Y3204159D01*
X2330805Y3223564D01*
X2354224Y3330854D01*
X2386025Y3480511D01*
X2407005Y3582212D01*
X2409647Y3596690D01*
X2408732Y3598316D01*
X2406192Y3600856D01*
X2402281Y3604209D01*
X2391003Y3612642D01*
X2376779Y3622548D01*
X2361234Y3632708D01*
X2346248Y3642004D01*
X2333548Y3649218D01*
X2328570Y3651707D01*
X2324862Y3653282D01*
G37*
G36*
X2569565Y2951175D02*
G01*
X2084374Y2945028D01*
X2080209Y2908249D01*
X2079599Y2899511D01*
X2079599Y2891688D01*
X2080310Y2884678D01*
X2080971Y2881426D01*
X2081834Y2878429D01*
X2084273Y2872892D01*
X2085898Y2870403D01*
X2087778Y2868117D01*
X2089912Y2865932D01*
X2092401Y2863900D01*
X2095144Y2862072D01*
X2098243Y2860344D01*
X2101697Y2858770D01*
X2109622Y2856026D01*
X2119122Y2853740D01*
X2130196Y2851912D01*
X2143048Y2850438D01*
X2157730Y2849372D01*
X2174341Y2848610D01*
X2193036Y2848051D01*
X2288336Y2847289D01*
X2323541Y2846425D01*
X2335784Y2845663D01*
X2344826Y2844596D01*
X2350922Y2843276D01*
X2352954Y2842463D01*
X2354326Y2841548D01*
X2355138Y2840532D01*
X2355392Y2839415D01*
X2355088Y2838246D01*
X2354326Y2836875D01*
X2351430Y2833878D01*
X2315464Y2805887D01*
X2302052Y2795016D01*
X2284679Y2781909D01*
X2259888Y2763621D01*
X2177643Y2704185D01*
X2161540Y2692095D01*
X2147214Y2680970D01*
X2134514Y2670708D01*
X2123389Y2661208D01*
X2113686Y2652420D01*
X2105406Y2644140D01*
X2098446Y2636418D01*
X2092706Y2629052D01*
X2088032Y2622042D01*
X2084425Y2615184D01*
X2081784Y2608529D01*
X2080006Y2601823D01*
X2078989Y2595118D01*
X2078685Y2588260D01*
X2078989Y2581452D01*
X2079752Y2574544D01*
X2081022Y2567787D01*
X2082698Y2561285D01*
X2084730Y2555290D01*
X2087067Y2549956D01*
X2089657Y2545486D01*
X2092401Y2542082D01*
X2094484Y2540863D01*
X2098344Y2539746D01*
X2103780Y2538628D01*
X2119172Y2536545D01*
X2139899Y2534666D01*
X2165197Y2532989D01*
X2194204Y2531465D01*
X2260396Y2529179D01*
X2332075Y2527858D01*
X2376830Y2527604D01*
X2411425Y2527655D01*
X2444038Y2528062D01*
X2473858Y2528722D01*
X2500172Y2529738D01*
X2522118Y2531059D01*
X2531211Y2531821D01*
X2538933Y2532735D01*
X2545130Y2533700D01*
X2549804Y2534716D01*
X2551480Y2535275D01*
X2555798Y2537612D01*
X2559456Y2541066D01*
X2562555Y2545689D01*
X2565095Y2551480D01*
X2567076Y2558440D01*
X2568448Y2566619D01*
X2569260Y2576017D01*
X2569565Y2586634D01*
X2569565Y2631084D01*
X2346502Y2631135D01*
X2321509Y2631541D01*
X2302306Y2632608D01*
X2294788Y2633421D01*
X2288743Y2634538D01*
X2284018Y2635910D01*
X2280615Y2637637D01*
X2279446Y2638602D01*
X2278583Y2639669D01*
X2278075Y2640838D01*
X2277872Y2642108D01*
X2277973Y2643479D01*
X2279192Y2646578D01*
X2281682Y2650134D01*
X2285339Y2654147D01*
X2290267Y2658719D01*
X2296414Y2663901D01*
X2312162Y2675991D01*
X2389225Y2731668D01*
X2420569Y2755239D01*
X2443378Y2772918D01*
X2462174Y2788056D01*
X2488285Y2810103D01*
X2499969Y2819247D01*
X2511856Y2828086D01*
X2523286Y2836113D01*
X2533599Y2842971D01*
X2544114Y2849473D01*
X2549347Y2853131D01*
X2553817Y2856839D01*
X2557627Y2860700D01*
X2560828Y2864764D01*
X2563418Y2869184D01*
X2565501Y2874010D01*
X2567076Y2879344D01*
X2568244Y2885338D01*
X2569006Y2891993D01*
X2569413Y2899410D01*
X2569565Y2907741D01*
G37*
G36*
X2323642Y2460447D02*
G01*
X2310333Y2460193D01*
X2297074Y2459431D01*
X2284018Y2458262D01*
X2271166Y2456586D01*
X2258669Y2454503D01*
X2246630Y2451963D01*
X2235098Y2448915D01*
X2224176Y2445461D01*
X2213914Y2441549D01*
X2204466Y2437130D01*
X2194864Y2431897D01*
X2185568Y2426106D01*
X2176627Y2419756D01*
X2167991Y2413000D01*
X2159711Y2405735D01*
X2151837Y2398014D01*
X2144268Y2389886D01*
X2137054Y2381351D01*
X2130247Y2372461D01*
X2123795Y2363216D01*
X2117750Y2353665D01*
X2112111Y2343810D01*
X2106828Y2333650D01*
X2102002Y2323236D01*
X2097532Y2312619D01*
X2093569Y2301798D01*
X2089962Y2290775D01*
X2086813Y2279599D01*
X2084120Y2268321D01*
X2081885Y2256891D01*
X2080107Y2245410D01*
X2078786Y2233828D01*
X2077974Y2222246D01*
X2077685Y2214422D01*
X2182012Y2214422D01*
X2182215Y2228291D01*
X2182977Y2240229D01*
X2184400Y2250592D01*
X2185416Y2255367D01*
X2186635Y2259888D01*
X2188108Y2264206D01*
X2189886Y2268474D01*
X2194306Y2276703D01*
X2200046Y2285136D01*
X2207209Y2294077D01*
X2216048Y2303932D01*
X2226513Y2315006D01*
X2236114Y2324760D01*
X2244699Y2332583D01*
X2252776Y2338730D01*
X2256790Y2341219D01*
X2260854Y2343353D01*
X2265070Y2345131D01*
X2269490Y2346655D01*
X2274163Y2347874D01*
X2279142Y2348890D01*
X2284577Y2349652D01*
X2296871Y2350617D01*
X2311603Y2351024D01*
X2346553Y2350820D01*
X2361082Y2350262D01*
X2373274Y2349195D01*
X2383536Y2347417D01*
X2388108Y2346198D01*
X2392426Y2344724D01*
X2396439Y2342997D01*
X2400350Y2341016D01*
X2404110Y2338679D01*
X2407818Y2336038D01*
X2411526Y2333040D01*
X2419197Y2325878D01*
X2427579Y2316988D01*
X2437434Y2305913D01*
X2446324Y2294890D01*
X2449982Y2289708D01*
X2453233Y2284577D01*
X2456078Y2279497D01*
X2458466Y2274366D01*
X2460548Y2269083D01*
X2462225Y2263597D01*
X2463596Y2257806D01*
X2464714Y2251608D01*
X2465527Y2245004D01*
X2466543Y2230018D01*
X2466746Y2205532D01*
X2465984Y2192528D01*
X2464409Y2180132D01*
X2463393Y2174189D01*
X2460650Y2162810D01*
X2459024Y2157323D01*
X2457196Y2152040D01*
X2452878Y2141880D01*
X2450439Y2137003D01*
X2447798Y2132330D01*
X2441854Y2123389D01*
X2435148Y2115007D01*
X2427579Y2107184D01*
X2419146Y2099970D01*
X2409901Y2093264D01*
X2404973Y2090115D01*
X2394458Y2084222D01*
X2383028Y2078888D01*
X2370785Y2074062D01*
X2358644Y2070049D01*
X2347366Y2067255D01*
X2336241Y2065477D01*
X2325268Y2064613D01*
X2319782Y2064562D01*
X2314346Y2064766D01*
X2303576Y2065934D01*
X2292858Y2068068D01*
X2282190Y2071217D01*
X2276856Y2073148D01*
X2266289Y2077821D01*
X2255723Y2083460D01*
X2245156Y2090115D01*
X2239873Y2093823D01*
X2229358Y2102053D01*
X2218791Y2111248D01*
X2213457Y2116226D01*
X2204821Y2125167D01*
X2201113Y2129434D01*
X2197862Y2133701D01*
X2194966Y2137968D01*
X2192477Y2142388D01*
X2190292Y2146960D01*
X2188413Y2151786D01*
X2186838Y2156866D01*
X2185517Y2162352D01*
X2184450Y2168296D01*
X2182977Y2181656D01*
X2182266Y2197557D01*
X2182012Y2214422D01*
X2077685Y2214422D01*
X2077618Y2204821D01*
X2077974Y2193188D01*
X2078837Y2181656D01*
X2080260Y2170176D01*
X2082139Y2158796D01*
X2084527Y2147519D01*
X2087473Y2136343D01*
X2090978Y2125370D01*
X2094992Y2114600D01*
X2099564Y2103983D01*
X2104948Y2093163D01*
X2111603Y2081682D01*
X2119274Y2070049D01*
X2127707Y2058365D01*
X2136800Y2046884D01*
X2146300Y2035759D01*
X2156104Y2025142D01*
X2165959Y2015286D01*
X2175814Y2006244D01*
X2185365Y1998319D01*
X2194458Y1991614D01*
X2202992Y1986330D01*
X2206955Y1984248D01*
X2210714Y1982622D01*
X2214219Y1981403D01*
X2217470Y1980641D01*
X2227478Y1979523D01*
X2234336Y1977085D01*
X2240178Y1973427D01*
X2245512Y1967534D01*
X2247544Y1966163D01*
X2250287Y1964893D01*
X2253589Y1963724D01*
X2261971Y1961743D01*
X2272334Y1960168D01*
X2284323Y1959000D01*
X2297582Y1958238D01*
X2311755Y1957882D01*
X2326538Y1957933D01*
X2341575Y1958339D01*
X2356459Y1959203D01*
X2370886Y1960372D01*
X2384450Y1961946D01*
X2396896Y1963877D01*
X2407767Y1966163D01*
X2416810Y1968855D01*
X2420467Y1970328D01*
X2423566Y1971852D01*
X2436520Y1979472D01*
X2448814Y1987194D01*
X2460396Y1995017D01*
X2471369Y2002942D01*
X2481630Y2010968D01*
X2491282Y2019198D01*
X2500325Y2027580D01*
X2508758Y2036114D01*
X2516530Y2044903D01*
X2523744Y2053894D01*
X2530398Y2063191D01*
X2536494Y2072690D01*
X2541981Y2082546D01*
X2547010Y2092655D01*
X2551430Y2103120D01*
X2555341Y2113940D01*
X2558796Y2125116D01*
X2561691Y2136698D01*
X2564180Y2148687D01*
X2566111Y2161133D01*
X2567635Y2173986D01*
X2568702Y2187346D01*
X2569362Y2201164D01*
X2569565Y2215489D01*
X2569260Y2229154D01*
X2568448Y2242515D01*
X2567076Y2255570D01*
X2565146Y2268372D01*
X2562656Y2280818D01*
X2559659Y2292959D01*
X2556103Y2304745D01*
X2552039Y2316226D01*
X2547416Y2327402D01*
X2542286Y2338171D01*
X2536647Y2348585D01*
X2530500Y2358694D01*
X2523845Y2368397D01*
X2516682Y2377744D01*
X2509012Y2386685D01*
X2500833Y2395220D01*
X2492146Y2403398D01*
X2483002Y2411120D01*
X2473350Y2418486D01*
X2463241Y2425395D01*
X2452674Y2431897D01*
X2441600Y2437942D01*
X2432354Y2442260D01*
X2422347Y2446121D01*
X2411577Y2449525D01*
X2400198Y2452471D01*
X2388260Y2454960D01*
X2375916Y2456942D01*
X2363165Y2458516D01*
X2350160Y2459634D01*
X2336952Y2460244D01*
G37*
G36*
X2439365Y1910689D02*
G01*
X2406396Y1909876D01*
X2301290Y1906219D01*
X2294737Y1682191D01*
X2381199Y1689303D01*
X2385415Y1761388D01*
X2387244Y1780590D01*
X2388463Y1787906D01*
X2389886Y1793951D01*
X2391664Y1798726D01*
X2393797Y1802434D01*
X2396337Y1805228D01*
X2399334Y1807159D01*
X2402941Y1808378D01*
X2407107Y1808988D01*
X2411933Y1809191D01*
X2416352Y1808988D01*
X2420569Y1808480D01*
X2424633Y1807616D01*
X2428494Y1806397D01*
X2432151Y1804822D01*
X2435606Y1802892D01*
X2438908Y1800656D01*
X2442006Y1798015D01*
X2444953Y1795068D01*
X2447696Y1791716D01*
X2450236Y1788058D01*
X2452573Y1784045D01*
X2454757Y1779676D01*
X2456738Y1774952D01*
X2458567Y1769872D01*
X2461615Y1758645D01*
X2463901Y1745996D01*
X2465476Y1731975D01*
X2466289Y1716481D01*
X2466441Y1701495D01*
X2465882Y1688541D01*
X2464663Y1676247D01*
X2462784Y1664563D01*
X2460244Y1653438D01*
X2457043Y1642872D01*
X2455214Y1637792D01*
X2450947Y1628089D01*
X2446020Y1618894D01*
X2440330Y1610207D01*
X2433980Y1602028D01*
X2426868Y1594307D01*
X2418994Y1587093D01*
X2410409Y1580286D01*
X2401011Y1573885D01*
X2390851Y1567942D01*
X2379929Y1562404D01*
X2367991Y1556969D01*
X2357577Y1553057D01*
X2352802Y1551584D01*
X2348179Y1550517D01*
X2343658Y1549755D01*
X2339136Y1549349D01*
X2334564Y1549298D01*
X2329942Y1549603D01*
X2325065Y1550212D01*
X2319934Y1551127D01*
X2308606Y1553972D01*
X2295398Y1558086D01*
X2285746Y1561744D01*
X2275332Y1566519D01*
X2264562Y1572107D01*
X2253742Y1578457D01*
X2243124Y1585264D01*
X2233117Y1592427D01*
X2224024Y1599641D01*
X2216150Y1606753D01*
X2207666Y1615287D01*
X2200656Y1623110D01*
X2195017Y1630578D01*
X2190597Y1638147D01*
X2188768Y1642059D01*
X2187194Y1646174D01*
X2185873Y1650492D01*
X2184755Y1655114D01*
X2183079Y1665325D01*
X2182063Y1677263D01*
X2181555Y1691284D01*
X2181453Y1707794D01*
X2181860Y1725675D01*
X2182977Y1741728D01*
X2184755Y1755292D01*
X2185873Y1760982D01*
X2187092Y1765807D01*
X2188413Y1769668D01*
X2189784Y1772564D01*
X2191308Y1774342D01*
X2197303Y1776272D01*
X2200910Y1779981D01*
X2203348Y1785416D01*
X2205177Y1798726D01*
X2207615Y1804162D01*
X2211222Y1807819D01*
X2215692Y1809191D01*
X2219299Y1809496D01*
X2222195Y1810359D01*
X2224430Y1811731D01*
X2225954Y1813610D01*
X2226818Y1815998D01*
X2227021Y1818792D01*
X2226564Y1821942D01*
X2225497Y1825498D01*
X2223770Y1829307D01*
X2221484Y1833473D01*
X2218588Y1837842D01*
X2215134Y1842414D01*
X2211070Y1847189D01*
X2206498Y1852117D01*
X2201367Y1857146D01*
X2189683Y1867255D01*
X2184044Y1871725D01*
X2178659Y1875485D01*
X2173579Y1878685D01*
X2168753Y1881225D01*
X2164181Y1883105D01*
X2159762Y1884324D01*
X2155545Y1884883D01*
X2151430Y1884832D01*
X2147468Y1884070D01*
X2143607Y1882597D01*
X2139797Y1880463D01*
X2136038Y1877669D01*
X2132279Y1874113D01*
X2128520Y1869846D01*
X2124710Y1864918D01*
X2120849Y1859229D01*
X2112772Y1845614D01*
X2106523Y1833625D01*
X2102713Y1824736D01*
X2099208Y1814982D01*
X2095957Y1804466D01*
X2093061Y1793290D01*
X2090420Y1781505D01*
X2088184Y1769262D01*
X2086203Y1756664D01*
X2084628Y1743760D01*
X2083358Y1730654D01*
X2082444Y1717497D01*
X2081885Y1704289D01*
X2081682Y1691233D01*
X2081834Y1678330D01*
X2082393Y1665732D01*
X2083358Y1653539D01*
X2084679Y1641856D01*
X2086406Y1630730D01*
X2088489Y1620266D01*
X2091029Y1610614D01*
X2093975Y1602028D01*
X2098192Y1592935D01*
X2103780Y1582775D01*
X2110486Y1571955D01*
X2118106Y1560728D01*
X2126437Y1549501D01*
X2135174Y1538630D01*
X2144166Y1528368D01*
X2152954Y1519326D01*
X2161540Y1511147D01*
X2170379Y1503426D01*
X2179320Y1496161D01*
X2188464Y1489354D01*
X2197760Y1483055D01*
X2207209Y1477213D01*
X2216759Y1471828D01*
X2226462Y1466951D01*
X2236216Y1462481D01*
X2246122Y1458468D01*
X2256028Y1454912D01*
X2266035Y1451864D01*
X2276144Y1449222D01*
X2286203Y1447038D01*
X2296363Y1445260D01*
X2306523Y1443990D01*
X2316683Y1443126D01*
X2326792Y1442720D01*
X2336952Y1442770D01*
X2347010Y1443228D01*
X2357069Y1444091D01*
X2367076Y1445412D01*
X2376982Y1447190D01*
X2386838Y1449374D01*
X2396540Y1452016D01*
X2406192Y1455013D01*
X2415692Y1458468D01*
X2425090Y1462379D01*
X2434336Y1466646D01*
X2443429Y1471371D01*
X2452370Y1476451D01*
X2461107Y1481988D01*
X2469642Y1487932D01*
X2477973Y1494282D01*
X2486101Y1501038D01*
X2494026Y1508150D01*
X2501696Y1515719D01*
X2509062Y1523644D01*
X2516225Y1531975D01*
X2523083Y1540713D01*
X2529636Y1549857D01*
X2535936Y1559356D01*
X2541879Y1569262D01*
X2547467Y1579524D01*
X2552801Y1590192D01*
X2557119Y1600098D01*
X2560421Y1609750D01*
X2563164Y1620570D01*
X2565450Y1632305D01*
X2567279Y1644853D01*
X2568549Y1658061D01*
X2569413Y1671828D01*
X2569768Y1685950D01*
X2569667Y1700377D01*
X2569108Y1714906D01*
X2568041Y1729435D01*
X2566568Y1743760D01*
X2564688Y1757832D01*
X2562301Y1771446D01*
X2559507Y1784451D01*
X2556256Y1796796D01*
X2552649Y1808276D01*
X2548534Y1818741D01*
X2535326Y1846427D01*
X2528824Y1859280D01*
X2522778Y1870354D01*
X2516987Y1879752D01*
X2511196Y1887677D01*
X2505202Y1894128D01*
X2502052Y1896872D01*
X2498801Y1899361D01*
X2495346Y1901494D01*
X2491740Y1903374D01*
X2487930Y1905000D01*
X2483815Y1906422D01*
X2479497Y1907590D01*
X2469896Y1909267D01*
X2458923Y1910283D01*
G37*
G36*
X2549652Y1400708D02*
G01*
X2545638Y1400556D01*
X2541016Y1399946D01*
X2531719Y1397762D01*
X2523236Y1394714D01*
X2516479Y1391259D01*
X2512466Y1387754D01*
X2510739Y1385671D01*
X2504643Y1380032D01*
X2495753Y1372920D01*
X2484577Y1364640D01*
X2471775Y1355699D01*
X2457958Y1346403D01*
X2429967Y1328572D01*
X2416962Y1320850D01*
X2405532Y1314450D01*
X2396236Y1309776D01*
X2392578Y1308201D01*
X2389733Y1307236D01*
X2387701Y1306880D01*
X2382977Y1308252D01*
X2379065Y1311910D01*
X2376474Y1317294D01*
X2375154Y1326946D01*
X2374239Y1330147D01*
X2372715Y1333449D01*
X2370632Y1336802D01*
X2367991Y1340256D01*
X2364892Y1343761D01*
X2361336Y1347317D01*
X2357374Y1350873D01*
X2353005Y1354429D01*
X2343200Y1361440D01*
X2332228Y1368247D01*
X2320340Y1374749D01*
X2307742Y1380693D01*
X2294788Y1386027D01*
X2281732Y1390548D01*
X2268728Y1394155D01*
X2262378Y1395577D01*
X2250084Y1397558D01*
X2244242Y1398066D01*
X2238552Y1398219D01*
X2226259Y1397660D01*
X2220061Y1396949D01*
X2207768Y1394764D01*
X2201672Y1393291D01*
X2195626Y1391564D01*
X2183638Y1387348D01*
X2172004Y1382268D01*
X2160727Y1376324D01*
X2149856Y1369517D01*
X2139594Y1361998D01*
X2134666Y1357985D01*
X2125370Y1349451D01*
X2116836Y1340256D01*
X2112873Y1335430D01*
X2105660Y1325422D01*
X2099360Y1314907D01*
X2096617Y1309522D01*
X2094026Y1302969D01*
X2091588Y1294841D01*
X2089353Y1285290D01*
X2087321Y1274368D01*
X2085492Y1262278D01*
X2083816Y1249172D01*
X2082342Y1235202D01*
X2080006Y1205280D01*
X2079091Y1189583D01*
X2078431Y1173632D01*
X2077770Y1149553D01*
X2077618Y1133602D01*
X2077904Y1101394D01*
X2181453Y1101394D01*
X2181453Y1192987D01*
X2181860Y1213916D01*
X2182266Y1222756D01*
X2183638Y1237589D01*
X2184603Y1243787D01*
X2185822Y1249273D01*
X2187295Y1254099D01*
X2189073Y1258417D01*
X2191156Y1262227D01*
X2193544Y1265732D01*
X2196287Y1268933D01*
X2199386Y1271930D01*
X2206802Y1277721D01*
X2212289Y1281379D01*
X2217623Y1284630D01*
X2222754Y1287424D01*
X2227732Y1289710D01*
X2232558Y1291539D01*
X2237232Y1292961D01*
X2241804Y1293876D01*
X2246223Y1294282D01*
X2250592Y1294282D01*
X2254808Y1293774D01*
X2259025Y1292809D01*
X2263089Y1291336D01*
X2267153Y1289405D01*
X2271166Y1287018D01*
X2275128Y1284122D01*
X2279040Y1280718D01*
X2282952Y1276858D01*
X2286914Y1272540D01*
X2294788Y1262329D01*
X2297887Y1257808D01*
X2300732Y1253185D01*
X2305710Y1243533D01*
X2307844Y1238504D01*
X2309774Y1233271D01*
X2311501Y1227836D01*
X2313025Y1222146D01*
X2315464Y1210005D01*
X2317140Y1196594D01*
X2318105Y1181760D01*
X2318410Y1165301D01*
X2318410Y1101394D01*
X2077904Y1101394D01*
X2078989Y1073759D01*
X2079853Y1060551D01*
X2080920Y1048359D01*
X2082241Y1037285D01*
X2083765Y1027531D01*
X2085492Y1019251D01*
X2087422Y1012545D01*
X2089607Y1007618D01*
X2090775Y1005840D01*
X2091994Y1004569D01*
X2093264Y1003757D01*
X2098649Y1002893D01*
X2109571Y1002182D01*
X2146046Y1001064D01*
X2198624Y1000556D01*
X2263241Y1000607D01*
X2335885Y1001268D01*
X2563876Y1004366D01*
X2570886Y1101394D01*
X2409748Y1101394D01*
X2409799Y1147927D01*
X2410256Y1158341D01*
X2411425Y1167638D01*
X2413558Y1176070D01*
X2415082Y1180084D01*
X2416911Y1183995D01*
X2419146Y1187805D01*
X2421737Y1191615D01*
X2424734Y1195425D01*
X2428240Y1199286D01*
X2432202Y1203248D01*
X2441702Y1211529D01*
X2453538Y1220571D01*
X2467965Y1230680D01*
X2485186Y1242110D01*
X2570734Y1296974D01*
X2566517Y1361236D01*
X2565704Y1370431D01*
X2564739Y1378204D01*
X2563571Y1384655D01*
X2562148Y1389837D01*
X2560472Y1393850D01*
X2558389Y1396847D01*
X2555951Y1398930D01*
X2553055Y1400200D01*
G37*
G36*
X2550261Y936244D02*
G01*
X2546858Y936091D01*
X2538933Y934821D01*
X2529332Y932281D01*
X2517902Y928420D01*
X2504490Y923340D01*
X2488946Y916940D01*
X2450846Y900328D01*
X2385466Y871270D01*
X2361438Y860856D01*
X2307844Y838453D01*
X2237994Y810717D01*
X2210714Y798677D01*
X2196846Y792073D01*
X2183892Y785622D01*
X2172512Y779576D01*
X2156714Y771550D01*
X2148840Y768045D01*
X2141270Y764997D01*
X2134260Y762508D01*
X2128012Y760577D01*
X2122728Y759358D01*
X2114448Y758494D01*
X2110384Y757224D01*
X2106523Y755142D01*
X2102815Y752297D01*
X2099310Y748842D01*
X2096058Y744829D01*
X2093010Y740257D01*
X2090216Y735228D01*
X2087727Y729843D01*
X2085492Y724103D01*
X2083562Y718159D01*
X2081987Y712012D01*
X2080717Y705713D01*
X2079752Y699363D01*
X2079149Y691286D01*
X2233777Y691286D01*
X2265984Y707999D01*
X2279751Y714502D01*
X2286660Y717346D01*
X2299665Y721868D01*
X2305354Y723392D01*
X2310180Y724357D01*
X2313990Y724712D01*
X2320137Y725627D01*
X2325166Y728065D01*
X2328570Y731672D01*
X2331161Y740562D01*
X2334869Y744169D01*
X2340305Y746658D01*
X2346960Y747522D01*
X2350008Y747217D01*
X2352700Y746302D01*
X2355088Y744677D01*
X2357170Y742340D01*
X2358898Y739140D01*
X2360371Y735177D01*
X2361590Y730250D01*
X2362504Y724408D01*
X2363216Y717550D01*
X2363724Y709625D01*
X2364079Y690372D01*
X2363825Y668528D01*
X2363470Y660196D01*
X2362860Y653491D01*
X2361996Y648309D01*
X2360777Y644448D01*
X2359202Y641908D01*
X2357221Y640486D01*
X2354783Y640181D01*
X2351786Y640791D01*
X2348230Y642213D01*
X2332786Y650189D01*
X2310688Y660247D01*
X2291638Y668324D01*
X2233777Y691286D01*
X2079149Y691286D01*
X2079040Y686816D01*
X2079243Y680720D01*
X2079853Y674827D01*
X2080869Y669239D01*
X2082342Y663956D01*
X2084273Y659130D01*
X2086711Y654761D01*
X2089556Y650900D01*
X2092960Y647700D01*
X2098395Y643991D01*
X2106422Y639318D01*
X2116429Y633984D01*
X2140254Y622401D01*
X2190953Y599897D01*
X2211476Y590245D01*
X2222703Y584657D01*
X2232406Y580948D01*
X2237435Y579374D01*
X2247188Y577138D01*
X2251608Y576529D01*
X2255469Y576326D01*
X2262174Y575411D01*
X2267661Y572973D01*
X2271369Y569315D01*
X2273960Y560476D01*
X2277262Y556818D01*
X2282139Y554380D01*
X2288133Y553466D01*
X2291892Y553161D01*
X2296718Y552196D01*
X2308707Y548792D01*
X2322576Y543661D01*
X2336647Y537464D01*
X2354021Y529285D01*
X2402078Y507796D01*
X2458313Y483311D01*
X2485948Y470611D01*
X2508199Y459536D01*
X2513279Y457454D01*
X2524506Y453948D01*
X2530348Y452628D01*
X2536088Y451612D01*
X2541574Y450951D01*
X2546553Y450748D01*
X2553004Y451104D01*
X2558186Y452475D01*
X2562199Y455015D01*
X2565196Y458978D01*
X2567279Y464616D01*
X2568651Y472185D01*
X2569362Y481939D01*
X2569565Y494131D01*
X2569362Y502716D01*
X2568803Y510743D01*
X2567889Y518210D01*
X2566568Y525119D01*
X2564892Y531469D01*
X2562809Y537260D01*
X2560421Y542544D01*
X2557576Y547217D01*
X2554427Y551383D01*
X2550871Y554939D01*
X2546908Y557987D01*
X2542590Y560476D01*
X2537917Y562406D01*
X2532888Y563778D01*
X2527452Y564591D01*
X2521610Y564896D01*
X2513634Y565810D01*
X2507081Y568248D01*
X2502662Y571855D01*
X2499715Y580745D01*
X2496058Y584352D01*
X2490571Y586841D01*
X2481935Y587857D01*
X2480056Y588314D01*
X2478379Y589178D01*
X2476804Y590346D01*
X2475382Y591972D01*
X2474112Y594055D01*
X2472944Y596646D01*
X2471877Y599744D01*
X2470150Y607669D01*
X2468829Y618083D01*
X2467864Y631240D01*
X2467254Y647496D01*
X2466898Y667004D01*
X2466797Y792632D01*
X2526690Y819962D01*
X2540812Y826871D01*
X2546553Y830021D01*
X2551430Y833119D01*
X2555595Y836168D01*
X2559100Y839317D01*
X2561945Y842619D01*
X2564231Y846124D01*
X2566009Y849934D01*
X2567330Y854202D01*
X2568295Y858926D01*
X2568956Y864158D01*
X2569514Y876706D01*
X2569464Y900023D01*
X2569159Y909015D01*
X2568397Y916736D01*
X2567127Y923188D01*
X2566263Y925880D01*
X2565146Y928319D01*
X2563825Y930402D01*
X2562301Y932180D01*
X2560472Y933602D01*
X2558389Y934770D01*
X2556002Y935583D01*
X2553309Y936040D01*
G37*
D19*
X3669284Y2654300D02*
G01*
X3778250Y2654300D01*
X3669284Y2654300D02*
G01*
X3669284Y2701036D01*
X3674363Y2716529D01*
X3679697Y2721863D01*
X3690111Y2726944D01*
X3700525Y2726944D01*
X3710940Y2721863D01*
X3716020Y2716529D01*
X3721100Y2701036D01*
X3721100Y2654300D01*
X3721100Y2690621D02*
G01*
X3778250Y2726944D01*
X3690111Y2761234D02*
G01*
X3684777Y2771647D01*
X3669284Y2787395D01*
X3778250Y2787395D01*
D18*
X7361176Y1241044D02*
G01*
X7352032Y1241044D01*
X7333490Y1250442D01*
X7324346Y1259586D01*
X7315202Y1278128D01*
X7315202Y1314957D01*
X7324346Y1333500D01*
X7333490Y1342644D01*
X7352032Y1352042D01*
X7370574Y1352042D01*
X7389116Y1342644D01*
X7416802Y1324355D01*
X7509004Y1231900D01*
X7509004Y1361186D01*
X7379718Y1564386D02*
G01*
X7509004Y1564386D01*
X7435090Y1564386D02*
G01*
X7407404Y1573529D01*
X7389116Y1592071D01*
X7379718Y1610613D01*
X7379718Y1638300D01*
X7435090Y1699260D02*
G01*
X7435090Y1810004D01*
X7416802Y1810004D01*
X7398260Y1800860D01*
X7389116Y1791715D01*
X7379718Y1773173D01*
X7379718Y1745487D01*
X7389116Y1726945D01*
X7407404Y1708404D01*
X7435090Y1699260D01*
X7453632Y1699260D01*
X7481318Y1708404D01*
X7499860Y1726945D01*
X7509004Y1745487D01*
X7509004Y1773173D01*
X7499860Y1791715D01*
X7481318Y1810004D01*
X7315202Y1870963D02*
G01*
X7509004Y1870963D01*
X7379718Y2042921D02*
G01*
X7509004Y2042921D01*
X7407404Y2042921D02*
G01*
X7389116Y2024379D01*
X7379718Y2005837D01*
X7379718Y1978152D01*
X7389116Y1959610D01*
X7407404Y1941321D01*
X7435090Y1931923D01*
X7453632Y1931923D01*
X7481318Y1941321D01*
X7499860Y1959610D01*
X7509004Y1978152D01*
X7509004Y2005837D01*
X7499860Y2024379D01*
X7481318Y2042921D01*
X7379718Y2113026D02*
G01*
X7509004Y2168397D01*
X7379718Y2223770D02*
G01*
X7509004Y2168397D01*
X7546088Y2150110D01*
X7564376Y2131568D01*
X7573774Y2113026D01*
X7573774Y2103881D01*
X7379718Y2426970D02*
G01*
X7509004Y2426970D01*
X7416802Y2426970D02*
G01*
X7389116Y2454910D01*
X7379718Y2473197D01*
X7379718Y2500884D01*
X7389116Y2519426D01*
X7416802Y2528570D01*
X7509004Y2528570D01*
X7416802Y2528570D02*
G01*
X7389116Y2556510D01*
X7379718Y2574797D01*
X7379718Y2602484D01*
X7389116Y2621026D01*
X7416802Y2630170D01*
X7509004Y2630170D01*
X7379718Y2737357D02*
G01*
X7389116Y2719070D01*
X7407404Y2700528D01*
X7435090Y2691129D01*
X7453632Y2691129D01*
X7481318Y2700528D01*
X7499860Y2719070D01*
X7509004Y2737357D01*
X7509004Y2765044D01*
X7499860Y2783586D01*
X7481318Y2802128D01*
X7453632Y2811271D01*
X7435090Y2811271D01*
X7407404Y2802128D01*
X7389116Y2783586D01*
X7379718Y2765044D01*
X7379718Y2737357D01*
X7315202Y2983229D02*
G01*
X7509004Y2983229D01*
X7407404Y2983229D02*
G01*
X7389116Y2964687D01*
X7379718Y2946145D01*
X7379718Y2918460D01*
X7389116Y2899918D01*
X7407404Y2881629D01*
X7435090Y2872231D01*
X7453632Y2872231D01*
X7481318Y2881629D01*
X7499860Y2899918D01*
X7509004Y2918460D01*
X7509004Y2946145D01*
X7499860Y2964687D01*
X7481318Y2983229D01*
X7379718Y3044189D02*
G01*
X7472174Y3044189D01*
X7499860Y3053334D01*
X7509004Y3071876D01*
X7509004Y3099562D01*
X7499860Y3117850D01*
X7472174Y3145789D01*
X7379718Y3145789D02*
G01*
X7509004Y3145789D01*
X7315202Y3206750D02*
G01*
X7509004Y3206750D01*
X7435090Y3267710D02*
G01*
X7435090Y3378454D01*
X7416802Y3378454D01*
X7398260Y3369310D01*
X7389116Y3359912D01*
X7379718Y3341370D01*
X7379718Y3313684D01*
X7389116Y3295395D01*
X7407404Y3276854D01*
X7435090Y3267710D01*
X7453632Y3267710D01*
X7481318Y3276854D01*
X7499860Y3295395D01*
X7509004Y3313684D01*
X7509004Y3341370D01*
X7499860Y3359912D01*
X7481318Y3378454D01*
X7095995Y4923789D02*
G01*
X7095995Y4996687D01*
X7100567Y5010150D01*
X7105139Y5014721D01*
X7114283Y5019294D01*
X7123173Y5019294D01*
X7132317Y5014721D01*
X7136889Y5010150D01*
X7141461Y4996687D01*
X7141461Y4987544D01*
X7066023Y4923789D02*
G01*
X7066023Y5019294D01*
X7066023Y4923789D02*
G01*
X7034273Y4923789D01*
X7020557Y4928362D01*
X7011413Y4937505D01*
X7006841Y4946650D01*
X7002269Y4960112D01*
X7002269Y4982971D01*
X7006841Y4996687D01*
X7011413Y5005578D01*
X7020557Y5014721D01*
X7034273Y5019294D01*
X7066023Y5019294D01*
X6972297Y4923789D02*
G01*
X6935975Y5019294D01*
X6899653Y4923789D02*
G01*
X6935975Y5019294D01*
X6815071Y4969255D02*
G01*
X6824215Y4960112D01*
X6833359Y4955794D01*
X6846821Y4955794D01*
X6855965Y4960112D01*
X6865109Y4969255D01*
X6869681Y4982971D01*
X6869681Y4992115D01*
X6865109Y5005578D01*
X6855965Y5014721D01*
X6846821Y5019294D01*
X6833359Y5019294D01*
X6824215Y5014721D01*
X6815071Y5005578D01*
X6730489Y4969255D02*
G01*
X6739633Y4960112D01*
X6748777Y4955794D01*
X6762493Y4955794D01*
X6771383Y4960112D01*
X6780527Y4969255D01*
X6785099Y4982971D01*
X6785099Y4992115D01*
X6780527Y5005578D01*
X6771383Y5014721D01*
X6762493Y5019294D01*
X6748777Y5019294D01*
X6739633Y5014721D01*
X6730489Y5005578D01*
X6673847Y4923787D02*
G01*
X6637525Y5019291D01*
X6601203Y4923787D02*
G01*
X6637525Y5019291D01*
X6516621Y4969253D02*
G01*
X6525765Y4960109D01*
X6534655Y4955791D01*
X6548371Y4955791D01*
X6557515Y4960109D01*
X6566659Y4969253D01*
X6571231Y4982969D01*
X6571231Y4992113D01*
X6566659Y5005575D01*
X6557515Y5014719D01*
X6548371Y5019291D01*
X6534655Y5019291D01*
X6525765Y5014719D01*
X6516621Y5005575D01*
X6432039Y4969253D02*
G01*
X6441183Y4960109D01*
X6450327Y4955791D01*
X6463789Y4955791D01*
X6472933Y4960109D01*
X6482077Y4969253D01*
X6486649Y4982969D01*
X6486649Y4992113D01*
X6482077Y5005575D01*
X6472933Y5014719D01*
X6463789Y5019291D01*
X6450327Y5019291D01*
X6441183Y5014719D01*
X6432039Y5005575D01*
X6264650Y4946650D02*
G01*
X6268968Y4937505D01*
X6278112Y4928362D01*
X6287256Y4923789D01*
X6305544Y4923789D01*
X6314434Y4928362D01*
X6323578Y4937505D01*
X6328150Y4946650D01*
X6332722Y4960112D01*
X6332722Y4982971D01*
X6328150Y4996687D01*
X6323578Y5005578D01*
X6314434Y5014721D01*
X6305544Y5019294D01*
X6287256Y5019294D01*
X6278112Y5014721D01*
X6268968Y5005578D01*
X6264650Y4996687D01*
X6264650Y4982971D01*
X6287256Y4982971D02*
G01*
X6264650Y4982971D01*
X6234424Y4955794D02*
G01*
X6234424Y5019294D01*
X6234424Y4973828D02*
G01*
X6220962Y4960112D01*
X6211818Y4955794D01*
X6198102Y4955794D01*
X6189212Y4960112D01*
X6184640Y4973828D01*
X6184640Y5019294D01*
X6100058Y4923789D02*
G01*
X6100058Y5019294D01*
X6100058Y4969255D02*
G01*
X6109202Y4960112D01*
X6118092Y4955794D01*
X6131808Y4955794D01*
X6140952Y4960112D01*
X6150096Y4969255D01*
X6154414Y4982971D01*
X6154414Y4992115D01*
X6150096Y5005578D01*
X6140952Y5014721D01*
X6131808Y5019294D01*
X6118092Y5019294D01*
X6109202Y5014721D01*
X6100058Y5005578D01*
X5464550Y4946650D02*
G01*
X5468868Y4937505D01*
X5478012Y4928362D01*
X5487156Y4923789D01*
X5505444Y4923789D01*
X5514334Y4928362D01*
X5523478Y4937505D01*
X5528050Y4946650D01*
X5532622Y4960112D01*
X5532622Y4982971D01*
X5528050Y4996687D01*
X5523478Y5005578D01*
X5514334Y5014721D01*
X5505444Y5019294D01*
X5487156Y5019294D01*
X5478012Y5014721D01*
X5468868Y5005578D01*
X5464550Y4996687D01*
X5464550Y4982971D01*
X5487156Y4982971D02*
G01*
X5464550Y4982971D01*
X5434324Y4955794D02*
G01*
X5434324Y5019294D01*
X5434324Y4973828D02*
G01*
X5420862Y4960112D01*
X5411718Y4955794D01*
X5398002Y4955794D01*
X5389112Y4960112D01*
X5384540Y4973828D01*
X5384540Y5019294D01*
X5299958Y4923789D02*
G01*
X5299958Y5019294D01*
X5299958Y4969255D02*
G01*
X5309102Y4960112D01*
X5317992Y4955794D01*
X5331708Y4955794D01*
X5340852Y4960112D01*
X5349996Y4969255D01*
X5354314Y4982971D01*
X5354314Y4992115D01*
X5349996Y5005578D01*
X5340852Y5014721D01*
X5331708Y5019294D01*
X5317992Y5019294D01*
X5309102Y5014721D01*
X5299958Y5005578D01*
X5229603Y4923789D02*
G01*
X5229603Y5019294D01*
X5199631Y4955794D02*
G01*
X5199631Y5019294D01*
X5199631Y4973828D02*
G01*
X5185915Y4960112D01*
X5176771Y4955794D01*
X5163309Y4955794D01*
X5154165Y4960112D01*
X5149593Y4973828D01*
X5149593Y5019294D01*
X5119621Y4942078D02*
G01*
X5110477Y4937505D01*
X5096761Y4923789D01*
X5096761Y5019294D01*
X4978400Y4923789D02*
G01*
X4978400Y5019294D01*
X4948427Y4955794D02*
G01*
X4948427Y5019294D01*
X4948427Y4973828D02*
G01*
X4934711Y4960112D01*
X4925568Y4955794D01*
X4912106Y4955794D01*
X4902961Y4960112D01*
X4898390Y4973828D01*
X4898390Y5019294D01*
X4863845Y4946650D02*
G01*
X4863845Y4942078D01*
X4859274Y4932934D01*
X4854702Y4928362D01*
X4845558Y4923789D01*
X4827524Y4923789D01*
X4818379Y4928362D01*
X4813808Y4932934D01*
X4809236Y4942078D01*
X4809236Y4951221D01*
X4813808Y4960112D01*
X4822952Y4973828D01*
X4868418Y5019294D01*
X4804663Y5019294D01*
X4741669Y4923789D02*
G01*
X4705347Y5019294D01*
X4669025Y4923789D02*
G01*
X4705347Y5019294D01*
X4584443Y4969255D02*
G01*
X4593587Y4960112D01*
X4602477Y4955794D01*
X4616193Y4955794D01*
X4625337Y4960112D01*
X4634481Y4969255D01*
X4639053Y4982971D01*
X4639053Y4992115D01*
X4634481Y5005578D01*
X4625337Y5014721D01*
X4616193Y5019294D01*
X4602477Y5019294D01*
X4593587Y5014721D01*
X4584443Y5005578D01*
X4499861Y4969255D02*
G01*
X4509005Y4960112D01*
X4518149Y4955794D01*
X4531611Y4955794D01*
X4540755Y4960112D01*
X4549899Y4969255D01*
X4554471Y4982971D01*
X4554471Y4992115D01*
X4549899Y5005578D01*
X4540755Y5014721D01*
X4531611Y5019294D01*
X4518149Y5019294D01*
X4509005Y5014721D01*
X4499861Y5005578D01*
X4908550Y1268729D02*
G01*
X4890261Y1259586D01*
X4871720Y1241044D01*
X4862575Y1222755D01*
X4862575Y1185671D01*
X4871720Y1167129D01*
X4890261Y1148842D01*
X4908550Y1139444D01*
X4936490Y1130300D01*
X4982463Y1130300D01*
X5010150Y1139444D01*
X5028691Y1148842D01*
X5047234Y1167129D01*
X5056377Y1185671D01*
X5056377Y1222755D01*
X5047234Y1241044D01*
X5028691Y1259586D01*
X5010150Y1268729D01*
X4862575Y1385315D02*
G01*
X4871720Y1366773D01*
X4890261Y1348231D01*
X4908550Y1339087D01*
X4936490Y1329689D01*
X4982463Y1329689D01*
X5010150Y1339087D01*
X5028691Y1348231D01*
X5047234Y1366773D01*
X5056377Y1385315D01*
X5056377Y1422145D01*
X5047234Y1440687D01*
X5028691Y1459229D01*
X5010150Y1468373D01*
X4982463Y1477518D01*
X4936490Y1477518D01*
X4908550Y1468373D01*
X4890261Y1459229D01*
X4871720Y1440687D01*
X4862575Y1422145D01*
X4862575Y1385315D01*
X4862575Y1538478D02*
G01*
X5056377Y1538478D01*
X4862575Y1538478D02*
G01*
X5056377Y1612392D01*
X4862575Y1686305D02*
G01*
X5056377Y1612392D01*
X4862575Y1686305D02*
G01*
X5056377Y1686305D01*
X6445250Y1268729D02*
G01*
X6426961Y1259586D01*
X6408420Y1241044D01*
X6399275Y1222755D01*
X6399275Y1185671D01*
X6408420Y1167129D01*
X6426961Y1148842D01*
X6445250Y1139444D01*
X6473190Y1130300D01*
X6519163Y1130300D01*
X6546850Y1139444D01*
X6565391Y1148842D01*
X6583934Y1167129D01*
X6593077Y1185671D01*
X6593077Y1222755D01*
X6583934Y1241044D01*
X6565391Y1259586D01*
X6546850Y1268729D01*
X6399275Y1385315D02*
G01*
X6408420Y1366773D01*
X6426961Y1348231D01*
X6445250Y1339087D01*
X6473190Y1329689D01*
X6519163Y1329689D01*
X6546850Y1339087D01*
X6565391Y1348231D01*
X6583934Y1366773D01*
X6593077Y1385315D01*
X6593077Y1422145D01*
X6583934Y1440687D01*
X6565391Y1459229D01*
X6546850Y1468373D01*
X6519163Y1477518D01*
X6473190Y1477518D01*
X6445250Y1468373D01*
X6426961Y1459229D01*
X6408420Y1440687D01*
X6399275Y1422145D01*
X6399275Y1385315D01*
X6399275Y1538478D02*
G01*
X6593077Y1538478D01*
X6399275Y1538478D02*
G01*
X6593077Y1612392D01*
X6399275Y1686305D02*
G01*
X6593077Y1612392D01*
X6399275Y1686305D02*
G01*
X6593077Y1686305D01*
X6445250Y1756410D02*
G01*
X6436106Y1756410D01*
X6417563Y1765807D01*
X6408420Y1774952D01*
X6399275Y1793494D01*
X6399275Y1830323D01*
X6408420Y1848865D01*
X6417563Y1858010D01*
X6436106Y1867407D01*
X6454647Y1867407D01*
X6473190Y1858010D01*
X6500875Y1839721D01*
X6593077Y1747265D01*
X6593077Y1876552D01*
X4356100Y1168400D02*
G01*
X4549902Y1168400D01*
X4549902Y1168400D02*
G01*
X4549902Y1279144D01*
X4392929Y1340104D02*
G01*
X4383786Y1358645D01*
X4356100Y1386331D01*
X4549902Y1386331D01*
X5359400Y1143000D02*
G01*
X5553202Y1143000D01*
X5553202Y1143000D02*
G01*
X5553202Y1253744D01*
X5405374Y1324102D02*
G01*
X5396229Y1324102D01*
X5377688Y1333245D01*
X5368543Y1342389D01*
X5359400Y1360931D01*
X5359400Y1398015D01*
X5368543Y1416304D01*
X5377688Y1425702D01*
X5396229Y1434845D01*
X5414772Y1434845D01*
X5433313Y1425702D01*
X5461000Y1407160D01*
X5553202Y1314704D01*
X5553202Y1443989D01*
X5903975Y1193800D02*
G01*
X6097777Y1193800D01*
X6097777Y1193800D02*
G01*
X6097777Y1304544D01*
X5940806Y1365504D02*
G01*
X5931661Y1384045D01*
X5903975Y1411731D01*
X6097777Y1411731D01*
X6843775Y1168400D02*
G01*
X7037577Y1168400D01*
X7037577Y1168400D02*
G01*
X7037577Y1279144D01*
X6889750Y1349502D02*
G01*
X6880606Y1349502D01*
X6862063Y1358645D01*
X6852920Y1367789D01*
X6843775Y1386331D01*
X6843775Y1423415D01*
X6852920Y1441704D01*
X6862063Y1451102D01*
X6880606Y1460245D01*
X6899147Y1460245D01*
X6917690Y1451102D01*
X6945375Y1432560D01*
X7037577Y1340104D01*
X7037577Y1469389D01*
X3975102Y1168400D02*
G01*
X4168904Y1168400D01*
X3975102Y1297686D02*
G01*
X4168904Y1297686D01*
X4067304Y1168400D02*
G01*
X4067304Y1297686D01*
X3975102Y1358645D02*
G01*
X4168904Y1358645D01*
X4168904Y1358645D02*
G01*
X4168904Y1469389D01*
X4085846Y1530350D02*
G01*
X4085846Y1696720D01*
X3975102Y1868423D02*
G01*
X3975102Y1776221D01*
X4058160Y1766823D01*
X4049016Y1776221D01*
X4039618Y1803907D01*
X4039618Y1831594D01*
X4049016Y1859279D01*
X4067304Y1877821D01*
X4094990Y1886965D01*
X4113532Y1886965D01*
X4141218Y1877821D01*
X4159760Y1859279D01*
X4168904Y1831594D01*
X4168904Y1803907D01*
X4159760Y1776221D01*
X4150616Y1766823D01*
X4132074Y1757679D01*
X4021076Y1957070D02*
G01*
X4011932Y1957070D01*
X3993390Y1966468D01*
X3984246Y1975612D01*
X3975102Y1994154D01*
X3975102Y2030984D01*
X3984246Y2049526D01*
X3993390Y2058670D01*
X4011932Y2068068D01*
X4030474Y2068068D01*
X4049016Y2058670D01*
X4076702Y2040381D01*
X4168904Y1947926D01*
X4168904Y2077212D01*
X4002788Y2267457D02*
G01*
X3984246Y2249170D01*
X3975102Y2221229D01*
X3975102Y2184400D01*
X3984246Y2156713D01*
X4002788Y2138171D01*
X4021076Y2138171D01*
X4039618Y2147570D01*
X4049016Y2156713D01*
X4058160Y2175255D01*
X4076702Y2230628D01*
X4085846Y2249170D01*
X4094990Y2258313D01*
X4113532Y2267457D01*
X4141218Y2267457D01*
X4159760Y2249170D01*
X4168904Y2221229D01*
X4168904Y2184400D01*
X4159760Y2156713D01*
X4141218Y2138171D01*
X3975102Y2470657D02*
G01*
X4168904Y2544571D01*
X3975102Y2618486D02*
G01*
X4168904Y2544571D01*
X4011932Y2679445D02*
G01*
X4002788Y2697987D01*
X3975102Y2725673D01*
X4168904Y2725673D01*
X4122676Y2795778D02*
G01*
X4132074Y2786634D01*
X4141218Y2795778D01*
X4132074Y2805176D01*
X4122676Y2795778D01*
X3975102Y2921507D02*
G01*
X3984246Y2893821D01*
X4011932Y2875279D01*
X4058160Y2866136D01*
X4085846Y2866136D01*
X4132074Y2875279D01*
X4159760Y2893821D01*
X4168904Y2921507D01*
X4168904Y2940050D01*
X4159760Y2967736D01*
X4132074Y2986023D01*
X4085846Y2995421D01*
X4058160Y2995421D01*
X4011932Y2986023D01*
X3984246Y2967736D01*
X3975102Y2940050D01*
X3975102Y2921507D01*
D19*
X2324100Y5563615D02*
G01*
X2324100Y5485637D01*
X2329179Y5470144D01*
X2339593Y5459729D01*
X2355341Y5454650D01*
X2365756Y5454650D01*
X2381250Y5459729D01*
X2391663Y5470144D01*
X2396743Y5485637D01*
X2396743Y5563615D01*
X2431034Y5542787D02*
G01*
X2441447Y5548121D01*
X2457195Y5563615D01*
X2457195Y5454650D01*
D20*
X1480057Y1724660D02*
G01*
X1557781Y1724660D01*
X1480057Y1724660D02*
G01*
X1557781Y1754123D01*
X1480057Y1783842D02*
G01*
X1557781Y1754123D01*
X1480057Y1783842D02*
G01*
X1557781Y1783842D01*
X1480057Y1830323D02*
G01*
X1483868Y1822957D01*
X1491234Y1815592D01*
X1498600Y1811781D01*
X1509521Y1808226D01*
X1528063Y1808226D01*
X1539239Y1811781D01*
X1546605Y1815592D01*
X1553971Y1822957D01*
X1557781Y1830323D01*
X1557781Y1845055D01*
X1553971Y1852421D01*
X1546605Y1859787D01*
X1539239Y1863597D01*
X1528063Y1867407D01*
X1509521Y1867407D01*
X1498600Y1863597D01*
X1491234Y1859787D01*
X1483868Y1852421D01*
X1480057Y1845055D01*
X1480057Y1830323D01*
X1491234Y1992376D02*
G01*
X1483868Y1985010D01*
X1480057Y1973834D01*
X1480057Y1959102D01*
X1483868Y1947926D01*
X1491234Y1940560D01*
X1498600Y1940560D01*
X1505965Y1944370D01*
X1509521Y1947926D01*
X1513331Y1955292D01*
X1520697Y1977389D01*
X1524507Y1985010D01*
X1528063Y1988565D01*
X1535429Y1992376D01*
X1546605Y1992376D01*
X1553971Y1985010D01*
X1557781Y1973834D01*
X1557781Y1959102D01*
X1553971Y1947926D01*
X1546605Y1940560D01*
X1498600Y2072131D02*
G01*
X1491234Y2068321D01*
X1483868Y2060955D01*
X1480057Y2053589D01*
X1480057Y2038857D01*
X1483868Y2031492D01*
X1491234Y2024126D01*
X1498600Y2020315D01*
X1509521Y2016760D01*
X1528063Y2016760D01*
X1539239Y2020315D01*
X1546605Y2024126D01*
X1553971Y2031492D01*
X1557781Y2038857D01*
X1557781Y2053589D01*
X1553971Y2060955D01*
X1546605Y2068321D01*
X1539239Y2072131D01*
X1480057Y2096515D02*
G01*
X1557781Y2096515D01*
X1480057Y2148331D02*
G01*
X1531873Y2096515D01*
X1513331Y2115057D02*
G01*
X1557781Y2148331D01*
X1480057Y2254504D02*
G01*
X1557781Y2225039D01*
X1480057Y2254504D02*
G01*
X1557781Y2284221D01*
X1531873Y2236215D02*
G01*
X1531873Y2273045D01*
X1480057Y2352802D02*
G01*
X1480057Y2315971D01*
X1513331Y2312162D01*
X1509521Y2315971D01*
X1505965Y2327147D01*
X1505965Y2338070D01*
X1509521Y2349245D01*
X1517142Y2356612D01*
X1528063Y2360168D01*
X1535429Y2360168D01*
X1546605Y2356612D01*
X1553971Y2349245D01*
X1557781Y2338070D01*
X1557781Y2327147D01*
X1553971Y2315971D01*
X1550162Y2312162D01*
X1542795Y2308605D01*
X1480057Y2513584D02*
G01*
X1557781Y2484120D01*
X1480057Y2513584D02*
G01*
X1557781Y2543302D01*
X1531873Y2495295D02*
G01*
X1531873Y2532126D01*
X1480057Y2604515D02*
G01*
X1531873Y2567686D01*
X1531873Y2623057D01*
X1480057Y2604515D02*
G01*
X1557781Y2604515D01*
X1480057Y2762504D02*
G01*
X1557781Y2733039D01*
X1480057Y2762504D02*
G01*
X1557781Y2792221D01*
X1531873Y2744215D02*
G01*
X1531873Y2781045D01*
X1480057Y2823971D02*
G01*
X1480057Y2864612D01*
X1509521Y2842513D01*
X1509521Y2853436D01*
X1513331Y2860802D01*
X1517142Y2864612D01*
X1528063Y2868168D01*
X1535429Y2868168D01*
X1546605Y2864612D01*
X1553971Y2857245D01*
X1557781Y2846070D01*
X1557781Y2835147D01*
X1553971Y2823971D01*
X1550162Y2820162D01*
X1542795Y2816605D01*
X1480057Y3016504D02*
G01*
X1557781Y2987039D01*
X1480057Y3016504D02*
G01*
X1557781Y3046221D01*
X1531873Y2998215D02*
G01*
X1531873Y3035045D01*
X1498600Y3074162D02*
G01*
X1494789Y3074162D01*
X1487423Y3077971D01*
X1483868Y3081528D01*
X1480057Y3089147D01*
X1480057Y3103879D01*
X1483868Y3111245D01*
X1487423Y3114802D01*
X1494789Y3118612D01*
X1502155Y3118612D01*
X1509521Y3114802D01*
X1520697Y3107436D01*
X1557781Y3070605D01*
X1557781Y3122168D01*
X1482597Y3288284D02*
G01*
X1560321Y3258820D01*
X1482597Y3288284D02*
G01*
X1560321Y3318002D01*
X1534413Y3269995D02*
G01*
X1534413Y3306826D01*
X1497329Y3342386D02*
G01*
X1493773Y3349752D01*
X1482597Y3360928D01*
X1560321Y3360928D01*
X1480057Y3529584D02*
G01*
X1557781Y3500120D01*
X1480057Y3529584D02*
G01*
X1557781Y3559302D01*
X1531873Y3511295D02*
G01*
X1531873Y3548126D01*
X1480057Y3605784D02*
G01*
X1483868Y3594607D01*
X1494789Y3587242D01*
X1513331Y3583686D01*
X1524507Y3583686D01*
X1542795Y3587242D01*
X1553971Y3594607D01*
X1557781Y3605784D01*
X1557781Y3613150D01*
X1553971Y3624326D01*
X1542795Y3631692D01*
X1524507Y3635247D01*
X1513331Y3635247D01*
X1494789Y3631692D01*
X1483868Y3624326D01*
X1480057Y3613150D01*
X1480057Y3605784D01*
X1498600Y3776471D02*
G01*
X1491234Y3772915D01*
X1483868Y3765550D01*
X1480057Y3757929D01*
X1480057Y3743197D01*
X1483868Y3735831D01*
X1491234Y3728465D01*
X1498600Y3724910D01*
X1509521Y3721100D01*
X1528063Y3721100D01*
X1539239Y3724910D01*
X1546605Y3728465D01*
X1553971Y3735831D01*
X1557781Y3743197D01*
X1557781Y3757929D01*
X1553971Y3765550D01*
X1546605Y3772915D01*
X1539239Y3776471D01*
X1528063Y3776471D01*
X1528063Y3757929D02*
G01*
X1528063Y3776471D01*
X1480057Y3800855D02*
G01*
X1557781Y3800855D01*
X1480057Y3800855D02*
G01*
X1557781Y3852671D01*
X1480057Y3852671D02*
G01*
X1557781Y3852671D01*
X1480057Y3877055D02*
G01*
X1557781Y3877055D01*
X1480057Y3877055D02*
G01*
X1480057Y3902963D01*
X1483868Y3913886D01*
X1491234Y3921505D01*
X1498600Y3925062D01*
X1509521Y3928871D01*
X1528063Y3928871D01*
X1539239Y3925062D01*
X1546605Y3921505D01*
X1553971Y3913886D01*
X1557781Y3902963D01*
X1557781Y3877055D01*
X1480057Y4005579D02*
G01*
X1557781Y4005579D01*
X1480057Y4005579D02*
G01*
X1557781Y4035044D01*
X1480057Y4064762D02*
G01*
X1557781Y4035044D01*
X1480057Y4064762D02*
G01*
X1557781Y4064762D01*
X1480057Y4089145D02*
G01*
X1557781Y4089145D01*
X1480057Y4089145D02*
G01*
X1480057Y4115054D01*
X1483868Y4125976D01*
X1491234Y4133342D01*
X1498600Y4137152D01*
X1509521Y4140707D01*
X1528063Y4140707D01*
X1539239Y4137152D01*
X1546605Y4133342D01*
X1553971Y4125976D01*
X1557781Y4115054D01*
X1557781Y4089145D01*
X1480057Y4226305D02*
G01*
X1480057Y4266945D01*
X1509521Y4244847D01*
X1509521Y4255770D01*
X1513331Y4263389D01*
X1517142Y4266945D01*
X1528063Y4270755D01*
X1535429Y4270755D01*
X1546605Y4266945D01*
X1553971Y4259579D01*
X1557781Y4248404D01*
X1557781Y4237481D01*
X1553971Y4226305D01*
X1550162Y4222750D01*
X1542795Y4218939D01*
X1480057Y4295139D02*
G01*
X1557781Y4324604D01*
X1480057Y4354068D02*
G01*
X1557781Y4324604D01*
X1480057Y4386071D02*
G01*
X1480057Y4426712D01*
X1509521Y4404360D01*
X1509521Y4415536D01*
X1513331Y4422902D01*
X1517142Y4426712D01*
X1528063Y4430268D01*
X1535429Y4430268D01*
X1546605Y4426712D01*
X1553971Y4419345D01*
X1557781Y4408170D01*
X1557781Y4396994D01*
X1553971Y4386071D01*
X1550162Y4382262D01*
X1542795Y4378705D01*
X1480057Y4498339D02*
G01*
X1557781Y4498339D01*
X1480057Y4498339D02*
G01*
X1480057Y4531613D01*
X1483868Y4542789D01*
X1487423Y4546345D01*
X1494789Y4550155D01*
X1502155Y4550155D01*
X1509521Y4546345D01*
X1513331Y4542789D01*
X1517142Y4531613D01*
X1517142Y4498339D01*
X1517142Y4524247D02*
G01*
X1557781Y4550155D01*
X1491234Y4626102D02*
G01*
X1483868Y4618736D01*
X1480057Y4607813D01*
X1480057Y4592828D01*
X1483868Y4581905D01*
X1491234Y4574539D01*
X1498600Y4574539D01*
X1505965Y4578095D01*
X1509521Y4581905D01*
X1513331Y4589271D01*
X1520697Y4611370D01*
X1524507Y4618736D01*
X1528063Y4622545D01*
X1535429Y4626102D01*
X1546605Y4626102D01*
X1553971Y4618736D01*
X1557781Y4607813D01*
X1557781Y4592828D01*
X1553971Y4581905D01*
X1546605Y4574539D01*
X1480057Y4676394D02*
G01*
X1557781Y4676394D01*
X1480057Y4650486D02*
G01*
X1480057Y4702302D01*
X2207259Y5126481D02*
G01*
X2207259Y5071110D01*
X2211070Y5059934D01*
X2218436Y5052568D01*
X2229358Y5048757D01*
X2236724Y5048757D01*
X2247900Y5052568D01*
X2255265Y5059934D01*
X2259075Y5071110D01*
X2259075Y5126481D01*
X2335022Y5115305D02*
G01*
X2327656Y5122671D01*
X2316734Y5126481D01*
X2301747Y5126481D01*
X2290825Y5122671D01*
X2283459Y5115305D01*
X2283459Y5107939D01*
X2287015Y5100573D01*
X2290825Y5097018D01*
X2298191Y5093207D01*
X2320290Y5085842D01*
X2327656Y5082031D01*
X2331465Y5078476D01*
X2335022Y5071110D01*
X2335022Y5059934D01*
X2327656Y5052568D01*
X2316734Y5048757D01*
X2301747Y5048757D01*
X2290825Y5052568D01*
X2283459Y5059934D01*
X2359406Y5126481D02*
G01*
X2359406Y5048757D01*
X2359406Y5126481D02*
G01*
X2392679Y5126481D01*
X2403856Y5122671D01*
X2407665Y5119115D01*
X2411222Y5111750D01*
X2411222Y5104384D01*
X2407665Y5097018D01*
X2403856Y5093207D01*
X2392679Y5089397D01*
X2359406Y5089397D02*
G01*
X2392679Y5089397D01*
X2403856Y5085842D01*
X2407665Y5082031D01*
X2411222Y5074665D01*
X2411222Y5063744D01*
X2407665Y5056378D01*
X2403856Y5052568D01*
X2392679Y5048757D01*
X2359406Y5048757D01*
X1482597Y713739D02*
G01*
X1560321Y713739D01*
X1482597Y713739D02*
G01*
X1560321Y765555D01*
X1482597Y765555D02*
G01*
X1560321Y765555D01*
X1501139Y845312D02*
G01*
X1493773Y841502D01*
X1486407Y834136D01*
X1482597Y826770D01*
X1482597Y812037D01*
X1486407Y804671D01*
X1493773Y797305D01*
X1501139Y793495D01*
X1512062Y789939D01*
X1530604Y789939D01*
X1541779Y793495D01*
X1549145Y797305D01*
X1556512Y804671D01*
X1560321Y812037D01*
X1560321Y826770D01*
X1556512Y834136D01*
X1549145Y841502D01*
X1541779Y845312D01*
X1482597Y991107D02*
G01*
X1560321Y991107D01*
X1482597Y965200D02*
G01*
X1482597Y1017015D01*
X1482597Y1041400D02*
G01*
X1560321Y1092962D01*
X1482597Y1092962D02*
G01*
X1560321Y1041400D01*
X1482597Y1226820D02*
G01*
X1560321Y1226820D01*
X1482597Y1226820D02*
G01*
X1482597Y1260094D01*
X1486407Y1271270D01*
X1489963Y1274826D01*
X1497329Y1278636D01*
X1504695Y1278636D01*
X1512062Y1274826D01*
X1515871Y1271270D01*
X1519681Y1260094D01*
X1519681Y1226820D01*
X1519681Y1252728D02*
G01*
X1560321Y1278636D01*
X1482597Y1303020D02*
G01*
X1560321Y1354581D01*
X1482597Y1354581D02*
G01*
X1560321Y1303020D01*
X1482597Y1496060D02*
G01*
X1560321Y1496060D01*
X1482597Y1496060D02*
G01*
X1560321Y1525523D01*
X1482597Y1555242D02*
G01*
X1560321Y1525523D01*
X1482597Y1555242D02*
G01*
X1560321Y1555242D01*
X1482597Y1579626D02*
G01*
X1560321Y1579626D01*
X3109213Y727455D02*
G01*
X3101847Y720089D01*
X3098038Y708913D01*
X3098038Y694181D01*
X3101847Y683005D01*
X3109213Y675639D01*
X3116579Y675639D01*
X3123945Y679450D01*
X3127502Y683005D01*
X3131311Y690371D01*
X3138677Y712470D01*
X3142488Y720089D01*
X3146043Y723645D01*
X3153409Y727455D01*
X3164586Y727455D01*
X3171952Y720089D01*
X3175761Y708913D01*
X3175761Y694181D01*
X3171952Y683005D01*
X3164586Y675639D01*
X3098038Y751839D02*
G01*
X3175761Y751839D01*
X3098038Y751839D02*
G01*
X3098038Y777747D01*
X3101847Y788670D01*
X3109213Y796036D01*
X3116579Y799845D01*
X3127502Y803402D01*
X3146043Y803402D01*
X3157220Y799845D01*
X3164586Y796036D01*
X3171952Y788670D01*
X3175761Y777747D01*
X3175761Y751839D01*
X3098038Y857504D02*
G01*
X3175761Y827786D01*
X3098038Y857504D02*
G01*
X3175761Y886968D01*
X3149854Y838962D02*
G01*
X3149854Y876045D01*
X3109213Y981455D02*
G01*
X3101847Y974089D01*
X3098038Y962913D01*
X3098038Y948181D01*
X3101847Y937005D01*
X3109213Y929639D01*
X3116579Y929639D01*
X3123945Y933450D01*
X3127502Y937005D01*
X3131311Y944371D01*
X3138677Y966470D01*
X3142488Y974089D01*
X3146043Y977645D01*
X3153409Y981455D01*
X3164586Y981455D01*
X3171952Y974089D01*
X3175761Y962913D01*
X3175761Y948181D01*
X3171952Y937005D01*
X3164586Y929639D01*
X3116579Y1061212D02*
G01*
X3109213Y1057402D01*
X3101847Y1050036D01*
X3098038Y1042670D01*
X3098038Y1027937D01*
X3101847Y1020571D01*
X3109213Y1013205D01*
X3116579Y1009395D01*
X3127502Y1005839D01*
X3146043Y1005839D01*
X3157220Y1009395D01*
X3164586Y1013205D01*
X3171952Y1020571D01*
X3175761Y1027937D01*
X3175761Y1042670D01*
X3171952Y1050036D01*
X3164586Y1057402D01*
X3157220Y1061212D01*
X3098038Y1085595D02*
G01*
X3175761Y1085595D01*
X3175761Y1085595D02*
G01*
X3175761Y1130045D01*
X3098038Y1216660D02*
G01*
X3175761Y1216660D01*
X3098038Y1216660D02*
G01*
X3098038Y1242568D01*
X3101847Y1253489D01*
X3109213Y1261110D01*
X3116579Y1264665D01*
X3127502Y1268476D01*
X3146043Y1268476D01*
X3157220Y1264665D01*
X3164586Y1261110D01*
X3171952Y1253489D01*
X3175761Y1242568D01*
X3175761Y1216660D01*
X3116579Y1296415D02*
G01*
X3112770Y1296415D01*
X3105404Y1300226D01*
X3101847Y1303781D01*
X3098038Y1311147D01*
X3098038Y1326134D01*
X3101847Y1333500D01*
X3105404Y1337055D01*
X3112770Y1340865D01*
X3120136Y1340865D01*
X3127502Y1337055D01*
X3138677Y1329689D01*
X3175761Y1292860D01*
X3175761Y1344421D01*
X3098038Y1473200D02*
G01*
X3175761Y1473200D01*
X3098038Y1473200D02*
G01*
X3098038Y1499107D01*
X3101847Y1510029D01*
X3109213Y1517650D01*
X3116579Y1521205D01*
X3127502Y1525015D01*
X3146043Y1525015D01*
X3157220Y1521205D01*
X3164586Y1517650D01*
X3171952Y1510029D01*
X3175761Y1499107D01*
X3175761Y1473200D01*
X3098038Y1556765D02*
G01*
X3098038Y1597405D01*
X3127502Y1575307D01*
X3127502Y1586229D01*
X3131311Y1593595D01*
X3135122Y1597405D01*
X3146043Y1600962D01*
X3153409Y1600962D01*
X3164586Y1597405D01*
X3171952Y1590039D01*
X3175761Y1578863D01*
X3175761Y1567687D01*
X3171952Y1556765D01*
X3168141Y1552955D01*
X3160775Y1549400D01*
X3098038Y1724660D02*
G01*
X3175761Y1724660D01*
X3098038Y1724660D02*
G01*
X3098038Y1750568D01*
X3101847Y1761489D01*
X3109213Y1769110D01*
X3116579Y1772665D01*
X3127502Y1776476D01*
X3146043Y1776476D01*
X3157220Y1772665D01*
X3164586Y1769110D01*
X3171952Y1761489D01*
X3175761Y1750568D01*
X3175761Y1724660D01*
X3098038Y1837689D02*
G01*
X3149854Y1800860D01*
X3149854Y1856231D01*
X3098038Y1837689D02*
G01*
X3175761Y1837689D01*
X3098038Y1978660D02*
G01*
X3175761Y1978660D01*
X3098038Y1978660D02*
G01*
X3098038Y2004568D01*
X3101847Y2015489D01*
X3109213Y2023110D01*
X3116579Y2026665D01*
X3127502Y2030476D01*
X3146043Y2030476D01*
X3157220Y2026665D01*
X3164586Y2023110D01*
X3171952Y2015489D01*
X3175761Y2004568D01*
X3175761Y1978660D01*
X3098038Y2099055D02*
G01*
X3098038Y2062226D01*
X3131311Y2058415D01*
X3127502Y2062226D01*
X3123945Y2073147D01*
X3123945Y2084323D01*
X3127502Y2095500D01*
X3135122Y2102865D01*
X3146043Y2106421D01*
X3153409Y2106421D01*
X3164586Y2102865D01*
X3171952Y2095500D01*
X3175761Y2084323D01*
X3175761Y2073147D01*
X3171952Y2062226D01*
X3168141Y2058415D01*
X3160775Y2054860D01*
X3098038Y2237739D02*
G01*
X3175761Y2237739D01*
X3098038Y2237739D02*
G01*
X3098038Y2263647D01*
X3101847Y2274570D01*
X3109213Y2282189D01*
X3116579Y2285745D01*
X3127502Y2289555D01*
X3146043Y2289555D01*
X3157220Y2285745D01*
X3164586Y2282189D01*
X3171952Y2274570D01*
X3175761Y2263647D01*
X3175761Y2237739D01*
X3109213Y2358136D02*
G01*
X3101847Y2354579D01*
X3098038Y2343404D01*
X3098038Y2336037D01*
X3101847Y2324862D01*
X3112770Y2317495D01*
X3131311Y2313939D01*
X3149854Y2313939D01*
X3164586Y2317495D01*
X3171952Y2324862D01*
X3175761Y2336037D01*
X3175761Y2339847D01*
X3171952Y2350770D01*
X3164586Y2358136D01*
X3153409Y2361945D01*
X3149854Y2361945D01*
X3138677Y2358136D01*
X3131311Y2350770D01*
X3127502Y2339847D01*
X3127502Y2336037D01*
X3131311Y2324862D01*
X3138677Y2317495D01*
X3149854Y2313939D01*
X3098038Y2494279D02*
G01*
X3175761Y2494279D01*
X3098038Y2494279D02*
G01*
X3098038Y2520187D01*
X3101847Y2531110D01*
X3109213Y2538729D01*
X3116579Y2542286D01*
X3127502Y2546095D01*
X3146043Y2546095D01*
X3157220Y2542286D01*
X3164586Y2538729D01*
X3171952Y2531110D01*
X3175761Y2520187D01*
X3175761Y2494279D01*
X3098038Y2622042D02*
G01*
X3175761Y2585212D01*
X3098038Y2570479D02*
G01*
X3098038Y2622042D01*
X3095497Y2740660D02*
G01*
X3173222Y2740660D01*
X3095497Y2740660D02*
G01*
X3095497Y2766568D01*
X3099308Y2777489D01*
X3106674Y2785110D01*
X3114040Y2788665D01*
X3124961Y2792476D01*
X3143504Y2792476D01*
X3154679Y2788665D01*
X3162045Y2785110D01*
X3169411Y2777489D01*
X3173222Y2766568D01*
X3173222Y2740660D01*
X3095497Y2835147D02*
G01*
X3099308Y2824226D01*
X3106674Y2820415D01*
X3114040Y2820415D01*
X3121406Y2824226D01*
X3124961Y2831592D01*
X3128772Y2846323D01*
X3132581Y2857500D01*
X3139947Y2864865D01*
X3147313Y2868421D01*
X3158236Y2868421D01*
X3165602Y2864865D01*
X3169411Y2861055D01*
X3173222Y2850134D01*
X3173222Y2835147D01*
X3169411Y2824226D01*
X3165602Y2820415D01*
X3158236Y2816860D01*
X3147313Y2816860D01*
X3139947Y2820415D01*
X3132581Y2827781D01*
X3128772Y2838957D01*
X3124961Y2853689D01*
X3121406Y2861055D01*
X3114040Y2864865D01*
X3106674Y2864865D01*
X3099308Y2861055D01*
X3095497Y2850134D01*
X3095497Y2835147D01*
X3095497Y2908300D02*
G01*
X3173222Y2937763D01*
X3095497Y2967481D02*
G01*
X3173222Y2937763D01*
X3095497Y2991865D02*
G01*
X3150870Y2991865D01*
X3162045Y2995421D01*
X3169411Y3002787D01*
X3173222Y3013963D01*
X3173222Y3021329D01*
X3169411Y3032505D01*
X3162045Y3039871D01*
X3150870Y3043428D01*
X3095497Y3043428D01*
X3106674Y3119628D02*
G01*
X3099308Y3112262D01*
X3095497Y3101086D01*
X3095497Y3086354D01*
X3099308Y3075431D01*
X3106674Y3068065D01*
X3114040Y3068065D01*
X3121406Y3071621D01*
X3124961Y3075431D01*
X3128772Y3082797D01*
X3136138Y3104895D01*
X3139947Y3112262D01*
X3143504Y3116071D01*
X3150870Y3119628D01*
X3162045Y3119628D01*
X3169411Y3112262D01*
X3173222Y3101086D01*
X3173222Y3086354D01*
X3169411Y3075431D01*
X3162045Y3068065D01*
X3095497Y3144012D02*
G01*
X3173222Y3144012D01*
X3095497Y3144012D02*
G01*
X3095497Y3177286D01*
X3099308Y3188462D01*
X3102863Y3192018D01*
X3110229Y3195828D01*
X3117595Y3195828D01*
X3124961Y3192018D01*
X3128772Y3188462D01*
X3132581Y3177286D01*
X3132581Y3144012D02*
G01*
X3132581Y3177286D01*
X3136138Y3188462D01*
X3139947Y3192018D01*
X3147313Y3195828D01*
X3158236Y3195828D01*
X3165602Y3192018D01*
X3169411Y3188462D01*
X3173222Y3177286D01*
X3173222Y3144012D01*
X3095497Y3253739D02*
G01*
X3173222Y3253739D01*
X3095497Y3253739D02*
G01*
X3095497Y3301745D01*
X3132581Y3253739D02*
G01*
X3132581Y3283204D01*
X3173222Y3253739D02*
G01*
X3173222Y3301745D01*
X3095497Y3326129D02*
G01*
X3173222Y3326129D01*
X3095497Y3326129D02*
G01*
X3173222Y3377945D01*
X3095497Y3377945D02*
G01*
X3173222Y3377945D01*
X3095497Y3484879D02*
G01*
X3173222Y3484879D01*
X3173222Y3484879D02*
G01*
X3173222Y3529329D01*
X3095497Y3553713D02*
G01*
X3099308Y3557270D01*
X3095497Y3561079D01*
X3091688Y3557270D01*
X3095497Y3553713D01*
X3121406Y3557270D02*
G01*
X3173222Y3557270D01*
X3106674Y3618737D02*
G01*
X3173222Y3618737D01*
X3139947Y3585463D02*
G01*
X3139947Y3652012D01*
D19*
X4597400Y5855715D02*
G01*
X4597400Y5777737D01*
X4602479Y5762244D01*
X4612893Y5751829D01*
X4628641Y5746750D01*
X4639056Y5746750D01*
X4654550Y5751829D01*
X4664963Y5762244D01*
X4670043Y5777737D01*
X4670043Y5855715D01*
X4709668Y5829807D02*
G01*
X4709668Y5834887D01*
X4714747Y5845302D01*
X4720081Y5850636D01*
X4730495Y5855715D01*
X4751070Y5855715D01*
X4761484Y5850636D01*
X4766818Y5845302D01*
X4771897Y5834887D01*
X4771897Y5824473D01*
X4766818Y5814060D01*
X4756404Y5798565D01*
X4704334Y5746750D01*
X4777231Y5746750D01*
D10*
X3810000Y215900D02*
G01*
X3810000Y5115890D01*
X7609992Y5115890D01*
X7609992Y215900D01*
X3810000Y215900D01*
D16*
X5816600Y685800D02*
G01*
X5816600Y2260600D01*
X7137400Y2260600D01*
X7137400Y685800D01*
X5816600Y685800D01*
X4330700Y685800D02*
G01*
X4330700Y2260600D01*
X5651500Y2260600D01*
X5651500Y685800D01*
X4330700Y685800D01*
X4445000Y4622800D02*
G01*
X4445000Y4872812D01*
X5544997Y4872812D01*
X5544997Y4622800D01*
X4445000Y4622800D01*
X6083300Y4635500D02*
G01*
X6083300Y4885512D01*
X6946900Y4885512D01*
X6946900Y4635500D01*
X6083300Y4635500D01*
D17*
X2024100Y5380581D02*
G01*
X2024100Y5335572D01*
X1984095Y5335572D01*
X1984095Y5265574D01*
X1984095Y4835578D01*
X2104113Y4835578D01*
X2104113Y4975583D01*
X2544086Y4975583D01*
X2544086Y4835578D01*
X2664104Y4835578D01*
X2664104Y5265574D01*
X2664104Y5335572D01*
X2624099Y5335572D01*
X2624099Y5375582D01*
X2604107Y5400573D02*
G01*
X2049096Y5400573D01*
D18*
X1984095Y5335572D02*
G01*
X1924100Y5395569D01*
X2664104Y5335572D02*
G01*
X2724099Y5395569D01*
D17*
X2664104Y5265574D02*
G01*
X1984095Y5265574D01*
D19*
X3467100Y393700D02*
G01*
X3467100Y4965700D01*
X1181100Y4965700D02*
G01*
X1181100Y393700D01*
X1435100Y139700D02*
G01*
X3213100Y139700D01*
X3213100Y5219700D02*
G01*
X1435100Y5219700D01*
D10*
X3605905Y5715000D02*
G01*
X3605905Y5461000D01*
X3332800Y5461000D02*
G01*
X5918200Y5461000D01*
X3332800Y5715000D02*
G01*
X3332800Y5461000D01*
X5912799Y5715000D02*
G01*
X3332800Y5715000D01*
X5912799Y5715000D02*
G01*
X5912799Y5461000D01*
D19*
G75*
G01*
X1562100Y4965700D02*
G03*
X1562100Y4965014I-127000J-343D01*
G75*
G01*
X3340100Y4965700D02*
G03*
X3340100Y4965014I-127000J-343D01*
G75*
G01*
X1562100Y393700D02*
G03*
X1562100Y393040I-127000J-330D01*
G75*
G01*
X3340100Y393700D02*
G03*
X3340100Y393040I-127000J-330D01*
G75*
G01*
X1181100Y393700D02*
G03*
X1435100Y139700I254000J0D01*
G75*
G01*
X3213100Y139700D02*
G03*
X3467100Y393700I0J254000D01*
G75*
G01*
X3467100Y4965700D02*
G03*
X3213100Y5219700I-254000J0D01*
G75*
G01*
X1435100Y5219700D02*
G03*
X1181100Y4965700I0J-254000D01*
D17*
G75*
G01*
X2624099Y5375580D02*
G03*
X2604110Y5400573I-23753J1493D01*
G75*
G01*
X2049094Y5400573D02*
G03*
X2024101Y5380584I-1493J-23753D01*
M02*
